# xmcd CD database file
#
# Track frame offsets:
#	150
#	10154
#	19152
#	29918
#	42204
#	52938
#	72547
#	81098
#	92372
#	104101
#	115149
#
# Disc length: 1663 seconds
#
# Revision: 0
# Processed by: cddbd v1.4PL0 Copyright (c) Steve Scherf et al.
# Submitted via: Feurio! 1.63 - http://www.feurio.com
#
DISCID=8d067d0b
DTITLE=Various Artist - Neues Projekt
DYEAR=1900
DGENRE=
TTITLE0=??? - Track: 1
TTITLE1=??? - Track: 8
TTITLE2=??? - Track: 9
TTITLE3=??? - Track: 11
TTITLE4=??? - Track: 20
TTITLE5=??? - Track: 17
TTITLE6=??? - Track: 18
TTITLE7=??? - Track: 1
TTITLE8=??? - Track: 8
TTITLE9=??? - Track: 9
TTITLE10=??? - Track: 12
EXTD=
EXTT0=
EXTT1=
EXTT2=
EXTT3=
EXTT4=
EXTT5=
EXTT6=
EXTT7=
EXTT8=
EXTT9=
EXTT10=
PLAYORDER=
